# xmcd
#
# Track frame offsets:
#	187
#	18715
#	36620
#	52667
#	72595
#	92755
#	109960
#	129690
#	146642
#	164275
#
# Disc length: 2487 seconds
#
# Revision: 1
# Processed by: cddbd v1.5.1PL0 Copyright (c) Steve Scherf et al.
# Submitted via: CDex 1.50Beta5
#
DISCID=9409b50a
DTITLE=佐野量子 - MODERATO
DYEAR=1900
DGENRE=Pop
TTITLE0=少女がページを閉じる時
TTITLE1=危険なテイスト
TTITLE2=雨が止むまで
TTITLE3=止めて片思い
TTITLE4=結べないリボン
TTITLE5=4月のせいかもしれない
TTITLE6=真夜中のブーケ
TTITLE7=アクエリアス
TTITLE8=どきどきテレポート
TTITLE9=風の微粒子
EXTD=
EXTT0=
EXTT1=
EXTT2=
EXTT3=
EXTT4=
EXTT5=
EXTT6=
EXTT7=
EXTT8=
EXTT9=
PLAYORDER=
